<svg xmlns="http://www.w3.org/2000/svg" viewBox="0 0 512 512" role="img" aria-labelledby="title desc">
  <title id="title">Sadrazam logo</title>
  <desc id="desc">A rounded teal square containing a bold S monogram.</desc>
  <defs>
    <linearGradient id="bg" x1="64" y1="48" x2="448" y2="464" gradientUnits="userSpaceOnUse">
      <stop offset="0" stop-color="#14b8a6"/>
      <stop offset="1" stop-color="#0f766e"/>
    </linearGradient>
  </defs>
  <rect x="24" y="24" width="464" height="464" rx="96" fill="url(#bg)"/>
  <path
    d="M346 148H214c-42 0-76 29-76 67 0 38 28 58 72 68l52 11c26 5 40 13 40 28 0 17-17 30-43 30H130"
    fill="none"
    opacity="0.96"
    stroke="#fff"
    stroke-linecap="round"
    stroke-linejoin="round"
    stroke-width="48"
  />
  <path
    d="M166 364h132c42 0 76-29 76-67 0-38-28-58-72-68l-52-11c-26-5-40-13-40-28 0-17 17-30 43-30h129"
    fill="none"
    opacity="0.96"
    stroke="#fff"
    stroke-linecap="round"
    stroke-linejoin="round"
    stroke-width="48"
  />
</svg>
